<svg width="1157" height="369" viewBox="0 0 1157 369" fill="none" xmlns="http://www.w3.org/2000/svg">
<g clip-path="url(#clip0_395_748)">
<path d="M30.8249 -1.06417C30.8249 7.31518 24.0361 14.1075 15.6624 14.1075C7.28873 14.1075 0.5 7.31518 0.5 -1.06417C0.5 -9.44352 7.28873 -16.2358 15.6624 -16.2358C24.0361 -16.2358 30.8249 -9.44352 30.8249 -1.06417Z" stroke="#0E2CE2"/>
<path d="M155.904 -1.06417C155.904 7.31518 149.115 14.1075 140.742 14.1075C132.368 14.1075 125.579 7.31518 125.579 -1.06417C125.579 -9.44352 132.368 -16.2358 140.742 -16.2358C149.115 -16.2358 155.904 -9.44352 155.904 -1.06417Z" stroke="#0E2CE2"/>
<path d="M406.048 -1.06417C406.048 7.31518 399.259 14.1075 390.885 14.1075C382.511 14.1075 375.723 7.31518 375.723 -1.06417C375.723 -9.44352 382.511 -16.2358 390.885 -16.2358C399.259 -16.2358 406.048 -9.44352 406.048 -1.06417Z" stroke="#0E2CE2"/>
<path d="M531.127 -1.06417C531.127 7.31518 524.338 14.1075 515.964 14.1075C507.591 14.1075 500.802 7.31518 500.802 -1.06417C500.802 -9.44352 507.591 -16.2358 515.964 -16.2358C524.338 -16.2358 531.127 -9.44352 531.127 -1.06417Z" stroke="#0E2CE2"/>
<path d="M906.349 -1.06417C906.349 7.31518 899.561 14.1075 891.187 14.1075C882.813 14.1075 876.024 7.31518 876.024 -1.06417C876.024 -9.44352 882.813 -16.2358 891.187 -16.2358C899.561 -16.2358 906.349 -9.44353 906.349 -1.06417Z" stroke="#0E2CE2"/>
<path d="M1156.5 -1.06417C1156.5 7.31518 1149.71 14.1075 1141.34 14.1075C1132.96 14.1075 1126.17 7.31518 1126.17 -1.06417C1126.17 -9.44352 1132.96 -16.2358 1141.34 -16.2358C1149.71 -16.2358 1156.5 -9.44352 1156.5 -1.06417Z" stroke="#0E2CE2"/>
<path d="M30.8249 111.064C30.8249 119.444 24.0361 126.236 15.6624 126.236C7.28873 126.236 0.5 119.444 0.5 111.064C0.5 102.685 7.28873 95.8926 15.6624 95.8926C24.0361 95.8926 30.8249 102.685 30.8249 111.064Z" stroke="#0E2CE2"/>
<path d="M155.904 111.064C155.904 119.444 149.115 126.236 140.742 126.236C132.368 126.236 125.579 119.444 125.579 111.064C125.579 102.685 132.368 95.8926 140.742 95.8926C149.115 95.8926 155.904 102.685 155.904 111.064Z" stroke="#0E2CE2"/>
<path d="M280.975 111.064C280.975 119.444 274.187 126.236 265.813 126.236C257.439 126.236 250.65 119.444 250.65 111.064C250.65 102.685 257.439 95.8926 265.813 95.8926C274.187 95.8926 280.975 102.685 280.975 111.064Z" stroke="#0E2CE2"/>
<path d="M531.127 111.064C531.127 119.444 524.338 126.236 515.964 126.236C507.591 126.236 500.802 119.444 500.802 111.064C500.802 102.685 507.591 95.8926 515.964 95.8926C524.338 95.8926 531.127 102.685 531.127 111.064Z" stroke="#0E2CE2"/>
<path d="M781.27 111.064C781.27 119.444 774.481 126.236 766.108 126.236C757.734 126.236 750.945 119.444 750.945 111.064C750.945 102.685 757.734 95.8926 766.108 95.8926C774.481 95.8926 781.27 102.685 781.27 111.064Z" stroke="#0E2CE2"/>
<path d="M906.349 111.064C906.349 119.444 899.561 126.236 891.187 126.236C882.813 126.236 876.024 119.444 876.024 111.064C876.024 102.685 882.813 95.8926 891.187 95.8926C899.561 95.8926 906.349 102.685 906.349 111.064Z" stroke="#0E2CE2"/>
<path d="M1156.5 111.064C1156.5 119.444 1149.71 126.236 1141.34 126.236C1132.96 126.236 1126.17 119.444 1126.17 111.064C1126.17 102.685 1132.96 95.8926 1141.34 95.8926C1149.71 95.8926 1156.5 102.685 1156.5 111.064Z" stroke="#0E2CE2"/>
<path d="M280.975 223.193C280.975 231.572 274.187 238.364 265.813 238.364C257.439 238.364 250.65 231.572 250.65 223.193C250.65 214.813 257.439 208.021 265.813 208.021C274.187 208.021 280.975 214.813 280.975 223.193Z" stroke="#0E2CE2"/>
<path d="M531.127 223.193C531.127 231.572 524.338 238.364 515.964 238.364C507.591 238.364 500.802 231.572 500.802 223.193C500.802 214.813 507.59 208.021 515.964 208.021C524.338 208.021 531.127 214.813 531.127 223.193Z" stroke="#0E2CE2"/>
<path d="M656.198 223.193C656.198 231.572 649.409 238.364 641.035 238.364C632.662 238.364 625.873 231.572 625.873 223.193C625.873 214.813 632.662 208.021 641.035 208.021C649.409 208.021 656.198 214.813 656.198 223.193Z" stroke="#0E2CE2"/>
<path d="M781.27 223.193C781.27 231.572 774.481 238.364 766.108 238.364C757.734 238.364 750.945 231.572 750.945 223.193C750.945 214.813 757.734 208.021 766.108 208.021C774.481 208.021 781.27 214.813 781.27 223.193Z" stroke="#0E2CE2"/>
<path d="M1031.42 223.193C1031.42 231.572 1024.63 238.364 1016.26 238.364C1007.88 238.364 1001.1 231.572 1001.1 223.193C1001.1 214.813 1007.88 208.021 1016.26 208.021C1024.63 208.021 1031.42 214.813 1031.42 223.193Z" stroke="#0E2CE2"/>
<path d="M1156.5 223.193C1156.5 231.572 1149.71 238.364 1141.34 238.364C1132.96 238.364 1126.17 231.572 1126.17 223.193C1126.17 214.813 1132.96 208.021 1141.34 208.021C1149.71 208.021 1156.5 214.813 1156.5 223.193Z" stroke="#0E2CE2"/>
<path d="M30.8249 335.328C30.8249 343.708 24.0361 350.5 15.6624 350.5C7.28873 350.5 0.5 343.708 0.5 335.328C0.5 326.949 7.28873 320.157 15.6624 320.157C24.0361 320.157 30.8249 326.949 30.8249 335.328Z" stroke="#0E2CE2"/>
<path d="M280.975 335.328C280.975 343.708 274.187 350.5 265.813 350.5C257.439 350.5 250.65 343.708 250.65 335.328C250.65 326.949 257.439 320.157 265.813 320.157C274.187 320.157 280.975 326.949 280.975 335.328Z" stroke="#0E2CE2"/>
<path d="M656.198 335.328C656.198 343.708 649.409 350.5 641.035 350.5C632.662 350.5 625.873 343.708 625.873 335.328C625.873 326.949 632.662 320.157 641.035 320.157C649.409 320.157 656.198 326.949 656.198 335.328Z" stroke="#0E2CE2"/>
<path d="M781.27 335.328C781.27 343.708 774.481 350.5 766.108 350.5C757.734 350.5 750.945 343.708 750.945 335.328C750.945 326.949 757.734 320.157 766.108 320.157C774.481 320.157 781.27 326.949 781.27 335.328Z" stroke="#0E2CE2"/>
<path d="M906.349 335.328C906.349 343.708 899.561 350.5 891.187 350.5C882.813 350.5 876.024 343.708 876.024 335.328C876.024 326.949 882.813 320.157 891.187 320.157C899.561 320.157 906.349 326.949 906.349 335.328Z" stroke="#0E2CE2"/>
<path d="M1031.42 335.328C1031.42 343.708 1024.63 350.5 1016.26 350.5C1007.88 350.5 1001.1 343.708 1001.1 335.328C1001.1 326.949 1007.88 320.157 1016.26 320.157C1024.63 320.157 1031.42 326.949 1031.42 335.328Z" stroke="#0E2CE2"/>
<path d="M1156.5 335.328C1156.5 343.708 1149.71 350.5 1141.34 350.5C1132.96 350.5 1126.17 343.708 1126.17 335.328C1126.17 326.949 1132.96 320.157 1141.34 320.157C1149.71 320.157 1156.5 326.949 1156.5 335.328Z" stroke="#0E2CE2"/>
</g>
<defs>
<clipPath id="clip0_395_748">
<rect width="1157" height="369" fill="white"/>
</clipPath>
</defs>
</svg>
