<?xml version="1.0" encoding="UTF-8"?>
<svg id="Calque_2" data-name="Calque 2" xmlns="http://www.w3.org/2000/svg" viewBox="0 0 85.63 65.84">
  <defs>
    <style>
      .cls-1 {
        fill: #fff;
      }

      .cls-2 {
        fill: #0808ff;
      }
    </style>
  </defs>
  <g id="Calque_1-2" data-name="Calque 1">
    <g>
      <g>
        <path class="cls-1" d="m19.86,63.34c-9.41,0-17.36-13.93-17.36-30.42S10.45,2.5,19.86,2.5s17.36,13.93,17.36,30.42-7.95,30.42-17.36,30.42Z"/>
        <path class="cls-2" d="m19.86,5c4.7,0,8.14,4.53,9.76,7.23,3.24,5.37,5.1,12.91,5.1,20.7s-1.86,15.32-5.1,20.7c-1.63,2.7-5.06,7.23-9.76,7.23s-8.14-4.53-9.76-7.23c-3.24-5.37-5.1-12.91-5.1-20.7s1.86-15.32,5.1-20.7c1.63-2.7,5.06-7.23,9.76-7.23m0-5C8.89,0,0,14.74,0,32.92s8.89,32.92,19.86,32.92,19.86-14.74,19.86-32.92S30.83,0,19.86,0h0Z"/>
      </g>
      <ellipse class="cls-2" cx="14.4" cy="34.59" rx="10.71" ry="15.89"/>
      <circle class="cls-1" cx="12.18" cy="28.39" r="4.53"/>
      <g>
        <path class="cls-1" d="m65.77,63.34c-9.41,0-17.36-13.93-17.36-30.42S56.36,2.5,65.77,2.5s17.36,13.93,17.36,30.42-7.95,30.42-17.36,30.42Z"/>
        <path class="cls-2" d="m65.77,5c4.7,0,8.14,4.53,9.76,7.23,3.24,5.37,5.1,12.91,5.1,20.7s-1.86,15.32-5.1,20.7c-1.63,2.7-5.06,7.23-9.76,7.23s-8.14-4.53-9.76-7.23c-3.24-5.37-5.1-12.91-5.1-20.7s1.86-15.32,5.1-20.7c1.63-2.7,5.06-7.23,9.76-7.23m0-5c-10.97,0-19.86,14.74-19.86,32.92s8.89,32.92,19.86,32.92,19.86-14.74,19.86-32.92S76.74,0,65.77,0h0Z"/>
      </g>
      <ellipse class="cls-2" cx="60.3" cy="34.59" rx="10.71" ry="15.89"/>
      <circle class="cls-1" cx="58.09" cy="28.39" r="4.53"/>
    </g>
  </g>
</svg>