<svg width="525" height="437" viewBox="0 0 525 437" fill="none" xmlns="http://www.w3.org/2000/svg">
<path d="M293.766 411.12V417.397H287.694V423.667H281.397V429.744H256.347V423.879H250.25V324.087H256.159V180.769H262.456V143.32H268.647V112.105H274.944V87.2349H281.241V68.4857H287.431V55.9696H293.722V49.805H300.019V37.2952H306.203V31.1306H312.387V24.8601H318.684V18.6894H331.228V12.4126H343.666V6.13587H374.981V0.0710449H400.044V5.98004H424.988V12.2568H437.544V18.4213H443.841V24.6918H450.025V30.9624H456.316V37.1269H462.613V49.6368H468.797V55.9135H475.094V68.3112H481.284V86.9482H487.581V111.93H493.772V149.379H500.069V230.353H506.366V267.802H512.556V317.723H518.853V367.526H525V436.071H500.281V430.118H494.097V423.966H462.781V429.819H456.491V436.046H437.8V430.069H431.503V423.904H425.213V417.621H412.775V411.481H387.713V417.378H381.416V423.655H368.978V429.788H343.916V423.867H337.619V417.596H331.434V411.319H318.884V405.267H306.434V411.114H293.778L293.766 411.12ZM318.903 130.786V137.05H331.453V143.059H375.138V136.857H387.681V124.459H393.966V111.955H399.906V62.0593H393.766V56.1254H368.722V68.4795H362.538V74.75H356.253V93.1626H349.969V68.3486H343.791V55.8449H337.5V49.8861H318.703V55.9945H312.525V68.5044H306.528V118.4H312.613V130.792L318.903 130.786Z" fill="#0E2CE2"/>
<path d="M31.0405 99.589H37.2249V87.1914H43.5218V74.7937H49.8124V68.517H55.9968V62.2465H62.2874V56.0819H68.578V49.8114H74.7561V43.5346H87.3062V37.3639H99.8562V31.0871H112.294V24.96H181.122V30.8939H193.672V37.1644H199.856V43.4349H206.147V49.5995H212.444V62.1093H218.634V80.7463H224.731V261.569H218.909V342.655H224.769V417.397H218.903V423.549H206.353V417.677H187.55V411.4H175.113V405.261H143.797V411.151H137.5V417.422H131.316V423.692H125.025V429.857H118.734V436.065H87.5375V430.044H74.9813V423.879H68.6906V417.609H62.5125V411.482H31.2031V417.409H24.9062V423.605H6.21561V417.559H0V274.253H6.07179V218.105H12.2561V174.542C14.4948 174.442 16.4145 174.361 18.5468 174.268V143.327H24.8437V118.344H31.028V99.5953L31.0405 99.589ZM106.191 130.811V143.321H112.594V155.824H125.031V161.989H131.053C131.147 164.114 131.228 166.022 131.316 167.948H175.019V161.908H187.563V155.525H193.847V149.36H200.138V136.857H206.009V111.987H199.95V80.7837H193.547V74.5132H187.369V68.6541H181.078V74.7314H168.534V87.2412H162.356V99.4332H156.172V87.0044H149.881V74.6129H143.584V68.5544H112.394V74.7438H106.103V93.2126C103.971 93.3061 102.051 93.3933 100.125 93.4743V130.811H106.191Z" fill="#0E2CE2"/>
</svg>
