<svg width="364" height="233" viewBox="0 0 364 233" fill="none" xmlns="http://www.w3.org/2000/svg">
<path d="M203.677 285.66V290.022H199.468V294.38H195.102V298.603H177.734V294.527H173.507V225.176H177.604V125.577H181.97V99.5518H186.262V77.8585H190.628V60.5749H194.993V47.545H199.286V38.8469H203.647V34.5629H208.013V25.8691H212.301V21.585H216.589V17.2273H220.954V12.9389H229.651V8.57682H238.275V4.21478H259.987V0H277.364V4.10648H294.658V8.46853H303.364V12.7526H307.73V17.1103H312.017V21.468H316.379V25.7521H320.745V34.4459H325.033V38.8079H329.398V47.4237H333.69V60.3756H338.056V77.7372H342.349V103.762H346.714V160.036H351.08V186.061H355.372V220.753H359.738V255.364H364V303H346.862V298.863H342.574V294.588H320.862V298.655H316.5V302.983H303.541V298.829H299.176V294.544H294.814V290.178H286.191V285.911H268.814V290.009H264.448V294.371H255.825V298.634H238.448V294.518H234.082V290.161H229.795V285.799H221.093V281.593H212.461V285.656H203.686L203.677 285.66ZM221.106 90.8407V95.194H229.808V99.3698H260.095V95.0598H268.792V86.444H273.15V77.7545H277.268V43.079H273.011V38.9552H255.647V47.5407H251.359V51.8984H247.002V64.6943H242.645V47.4497H238.361V38.7603H234V34.6192H220.967V38.8643H216.684V47.558H212.526V82.2335H216.745V90.845L221.106 90.8407Z" fill="white"/>
<path d="M21.5214 69.1604H25.8092V60.5446H30.1751V51.9288H34.5366V47.5668H38.8244V43.2091H43.1859V38.925H47.5474V34.5673H51.8309V30.2052H60.5323V25.9168H69.2336V21.5548H77.8569V17.2967H125.578V21.4205H134.279V25.7782H138.567V30.1359H142.928V34.42H147.294V43.1138H151.586V56.0656H155.814V181.729H151.777V238.08H155.84V290.022H151.773V294.298H143.072V290.217H130.035V285.855H121.411V281.588H99.6992V285.682H95.3333V290.04H91.0455V294.397H86.684V298.681H82.3225V302.996H60.6927V298.811H51.987V294.527H47.6255V290.169H43.342V285.911H21.6341V290.031H17.2683V294.337H4.30949V290.135H0V190.544H4.20977V151.524H8.49759V121.249C10.0497 121.18 11.3807 121.124 12.8591 121.059V99.5562H17.2249V82.1946H21.5128V69.1648L21.5214 69.1604ZM73.6255 90.8581V99.5518H78.065V108.241H86.6883V112.525H90.8634C90.9285 114.002 90.9848 115.328 91.0455 116.666H121.346V112.469H130.043V108.033H134.401V103.749H138.762V95.0598H142.833V77.7762H138.632V56.0916H134.192V51.7339H129.909V47.6621H125.547V51.8855H116.85V60.5793H112.567V69.0521H108.279V60.4147H103.918V51.8032H99.5518V47.5928H77.9263V51.8942H73.5648V64.7291C72.0864 64.7941 70.7554 64.8547 69.4201 64.911V90.8581H73.6255Z" fill="white"/>
</svg>
