<svg width="35" height="35" viewBox="0 0 35 35" fill="none" xmlns="http://www.w3.org/2000/svg">
<path d="M10.277 0.416504H24.557C29.997 0.416504 34.417 4.8365 34.417 10.2765V24.5565C34.417 27.1715 33.3782 29.6795 31.5291 31.5286C29.68 33.3777 27.172 34.4165 24.557 34.4165H10.277C4.83699 34.4165 0.416992 29.9965 0.416992 24.5565V10.2765C0.416992 7.66147 1.45581 5.15354 3.30492 3.30443C5.15403 1.45532 7.66196 0.416504 10.277 0.416504ZM9.93699 3.8165C8.31387 3.8165 6.75722 4.46129 5.6095 5.60901C4.46178 6.75673 3.81699 8.31338 3.81699 9.9365V24.8965C3.81699 28.2795 6.55399 31.0165 9.93699 31.0165H24.897C26.5201 31.0165 28.0768 30.3717 29.2245 29.224C30.3722 28.0763 31.017 26.5196 31.017 24.8965V9.9365C31.017 6.5535 28.28 3.8165 24.897 3.8165H9.93699ZM26.342 6.3665C26.9056 6.3665 27.4461 6.59039 27.8446 6.9889C28.2431 7.38742 28.467 7.92792 28.467 8.4915C28.467 9.05509 28.2431 9.59559 27.8446 9.99411C27.4461 10.3926 26.9056 10.6165 26.342 10.6165C25.7784 10.6165 25.2379 10.3926 24.8394 9.99411C24.4409 9.59559 24.217 9.05509 24.217 8.4915C24.217 7.92792 24.4409 7.38742 24.8394 6.9889C25.2379 6.59039 25.7784 6.3665 26.342 6.3665ZM17.417 8.9165C19.6713 8.9165 21.8333 9.81204 23.4274 11.4061C25.0215 13.0002 25.917 15.1622 25.917 17.4165C25.917 19.6708 25.0215 21.8329 23.4274 23.4269C21.8333 25.021 19.6713 25.9165 17.417 25.9165C15.1627 25.9165 13.0006 25.021 11.4066 23.4269C9.81253 21.8329 8.91699 19.6708 8.91699 17.4165C8.91699 15.1622 9.81253 13.0002 11.4066 11.4061C13.0006 9.81204 15.1627 8.9165 17.417 8.9165ZM17.417 12.3165C16.0644 12.3165 14.7672 12.8538 13.8107 13.8103C12.8543 14.7667 12.317 16.0639 12.317 17.4165C12.317 18.7691 12.8543 20.0663 13.8107 21.0227C14.7672 21.9792 16.0644 22.5165 17.417 22.5165C18.7696 22.5165 20.0668 21.9792 21.0232 21.0227C21.9797 20.0663 22.517 18.7691 22.517 17.4165C22.517 16.0639 21.9797 14.7667 21.0232 13.8103C20.0668 12.8538 18.7696 12.3165 17.417 12.3165Z" fill="#0E2CE2"/>
</svg>
