<svg width="77" height="64" viewBox="0 0 77 64" fill="none" xmlns="http://www.w3.org/2000/svg">
<path d="M43.0856 60.3374V61.2588H42.1951V62.1792H41.2716V63.0713H37.5975V62.2104H36.7034V47.562H37.57V26.5245H38.4936V21.0274H39.4015V16.4454H40.3251V12.7947H41.2486V10.0425H42.1566V8.20529H43.0792V7.3004H44.0028V5.4641H44.9098V4.55921H45.8168V3.63877H46.7404V2.73296H48.5801V1.81161H50.4043V0.89025H54.9972V0H58.6731V0.867376H62.3315V1.78873H64.1731V2.69362H65.0966V3.61406H66.0037V4.5345H66.9263V5.43939H67.8498V7.2757H68.7569V8.19706H69.6804V10.0169H70.5884V12.7526H71.5119V16.4197H72.4199V21.9168H73.3434V33.8029H74.267V39.2999H75.1749V46.6278H76.0985V53.9383H77V64H73.3746V63.1262H72.4676V62.2232H67.8746V63.0823H66.952V63.9963H64.2107V63.1189H63.2871V62.214H62.3645V61.2917H60.5404V60.3905H56.8645V61.2561H55.941V62.1774H54.1168V63.0777H50.441V62.2085H49.5174V61.2881H48.6104V60.3667H46.7697V59.4783H44.9437V60.3365H43.0875L43.0856 60.3374ZM46.7725 19.1875V20.107H48.6131V20.989H55.0202V20.0786H56.8599V18.2588H57.7816V16.4234H58.6529V9.0992H57.7523V8.22817H54.0792V10.0416H53.1722V10.962H52.2505V13.6648H51.3287V10.0224H50.4226V8.18699H49.5V7.3123H46.7431V8.20895H45.837V10.0453H44.9575V17.3695H45.8498V19.1884L46.7725 19.1875Z" fill="#0E2CE2"/>
<path d="M4.55261 14.6081H5.45965V12.7883H6.38319V10.9685H7.30582V10.0471H8.21286V9.12667H9.13549V8.22178H10.0581V7.30133H10.9642V6.37998H12.8049V5.47417H14.6456V4.55282H16.4697V3.65342H26.5645V4.52446H28.4052V5.4449H29.3122V6.36534H30.2349V7.27023H31.1584V9.10654H32.0664V11.8422H32.9606V38.385H32.1067V50.2876H32.9661V61.2588H32.1058V62.1619H30.2651V61.3H27.5073V60.3786H25.6832V59.4774H21.0902V60.342H20.1667V61.2625H19.2596V62.1829H18.337V63.0878H17.4144V63.9991H12.8388V63.1153H10.9973V62.2104H10.0746V61.2899H9.1685V60.3905H4.57646V61.2606H3.65291V62.1701H0.911623V61.2826H0V40.2469H0.890529V32.005H1.79757V25.6104C2.1259 25.5958 2.40745 25.5839 2.72019 25.5702V21.0284H3.64374V17.3612H4.55078V14.6091L4.55261 14.6081ZM15.5746 19.1911V21.0274H16.5138V22.8628H18.3379V23.7677H19.2211C19.2349 24.0797 19.2468 24.3597 19.2596 24.6424H25.6694V23.7558H27.5092V22.8189H28.4309V21.914H29.3535V20.0786H30.2147V16.428H29.326V11.8477H28.3869V10.9273H27.4807V10.0672H26.5581V10.9593H24.7184V12.7956H23.8122V14.5853H22.9052V12.7609H21.9826V10.9419H21.059V10.0526H16.4844V10.9611H15.5618V13.6721C15.249 13.6859 14.9675 13.6987 14.685 13.7106V19.1911H15.5746Z" fill="#0E2CE2"/>
</svg>
