<svg width="34" height="34" viewBox="0 0 34 34" fill="none" xmlns="http://www.w3.org/2000/svg">
<path d="M31.8183 8.50008C30.7275 8.99591 29.5516 9.32175 28.3333 9.47758C29.58 8.72675 30.5433 7.53675 30.9966 6.10591C29.8208 6.81425 28.5175 7.31008 27.1433 7.59342C26.0241 6.37508 24.4516 5.66675 22.6666 5.66675C19.3375 5.66675 16.6175 8.38675 16.6175 11.7442C16.6175 12.2259 16.6741 12.6934 16.7733 13.1326C11.73 12.8776 7.23914 10.4551 4.24997 6.78591C3.72581 7.67841 3.42831 8.72675 3.42831 9.83175C3.42831 11.9426 4.49081 13.8126 6.13414 14.8751C5.12831 14.8751 4.19331 14.5917 3.37164 14.1667V14.2092C3.37164 17.1559 5.46831 19.6209 8.24497 20.1734C7.3535 20.4174 6.41761 20.4513 5.51081 20.2726C5.89558 21.4803 6.64915 22.537 7.66558 23.2942C8.68201 24.0515 9.91019 24.4711 11.1775 24.4943C9.02928 26.1949 6.36647 27.1141 3.62664 27.1009C3.14497 27.1009 2.66331 27.0726 2.18164 27.0159C4.87331 28.7442 8.07497 29.7501 11.5033 29.7501C22.6666 29.7501 28.8008 20.4851 28.8008 12.4526C28.8008 12.1834 28.8008 11.9284 28.7866 11.6592C29.9766 10.8092 30.9966 9.73258 31.8183 8.50008Z" fill="#0E2CE2"/>
</svg>
